<?xml version="1.0" encoding="utf-8"?>
<!-- Generator: Adobe Illustrator 22.0.1, SVG Export Plug-In . SVG Version: 6.00 Build 0)  -->
<svg version="1.1" id="Layer_1" xmlns="http://www.w3.org/2000/svg" xmlns:xlink="http://www.w3.org/1999/xlink" x="0px" y="0px"
	 viewBox="0 0 799 378.3" style="enable-background:new 0 0 799 378.3;" xml:space="preserve">
<style type="text/css">
	.st0{fill:#FEFEFE;}
	.st1{fill:#373737;stroke:#373737;stroke-width:3;stroke-miterlimit:10;}
	.st2{fill:#E8E8E8;}
	.st3{fill:#BF3631;}
	.st4{font-family:'PokemonSolidNormal';}
	.st5{font-size:105.4244px;}
	.st6{letter-spacing:17;}
	.st7{letter-spacing:7;}
	.st8{letter-spacing:8;}
	.st9{fill:#373737;}
</style>
<title>title</title>
<g>
	<g id="Layer_2_1_">
		<g id="Layer_1-2">
			<path class="st0" d="M473.3,181.2c6.2,1.2,11.8,1.2,16.9-2.8c1-0.8,1.6-0.6,2.2,0.6c1.2,2.5,2.8,4.9,4,7.5
				c0.8,1.9,1.7,1.7,3.2,0.8c2-1.3,4.2-2.3,6.5-3.6c0.5,4.2,1.1,8.1,1.4,12.1s2.4,2,26.6,3.1c3,0.1,5.9,0.8,8.6,2
				c13.5,6,18.8,9,25.3,2.9c0.4-0.3,0.8-0.6,1.3-0.7c3.2-0.7,3.8-1.6,3.5-3.5c-0.6-3.3-1-6.6-1.6-9.8c-0.2-0.9-0.4-1.5,0.9-1.7
				c5.2-0.5,10.3-1.8,15-4.1c-0.5,4.9-1.1,9.5-1.5,14.1c-0.5,5.1-0.4,5.1,4.8,5.8c9.5,1.3,18.9,2.7,28.4,4c1.8,0.2,2.3,1,2.3,2.8
				c-0.1,3.4,0.1,6.8,0.1,10.2c0,1.6,0.5,2.2,2,2.7c8.5,2.6,17,5.4,25.4,8.1c3.3,1,6.8,3.1,9.9,2.8c3.8-0.4,7.2-3.8,10.9-5.1
				c0.2-0.1,0.3-0.2,0.3-0.3c16-48.4,32.1-96.7,48.2-145.1c0.5-1.6,0.5-2.3-1.5-2.7c-15.7-3.7-31.3-7.6-47-11.4
				c-1.2-0.3-2.4-0.1-3.5,0.5c-2,1.2-4.1,2.2-6.3,3.4c-0.3-1.2-0.6-2.5-0.7-3.7c-0.1-2.1-1.2-2.9-3.2-3.3
				c-15.1-3.2-30.2-6.6-45.3-9.9c-3.6-0.8-7.2-2.1-10.9-2.2s-6.5,3.1-9.9,4.5c-0.1,0-0.1,0.1-0.2,0.1c-1.4,0.5-1.8,1.5-1.8,3
				c0.2,8.8,0.2,17.5,0.3,26.3c0,1.6-0.4,2-2,2c-5.7,0.1-11.3,1.1-16.6,3.1c-4.3,1.7-8.4,3.8-12.2,6.4c-0.1-0.3-0.2-0.5-0.3-0.8
				c-2.8-17.9-5.6-35.7-8.4-53.5c-0.2-1.6-0.7-2.4-2.7-2.4c-11.9,0.1-23.8,0-35.8,0.1c-0.8-0.1-1.6,0-2.4,0.3
				c-3.2,1.8-6.5,3.3-9.6,5.2c-0.9,0.6-2,0.9-3.1,0.9c-6.6,0-13.2,0.4-19.7-0.1c-6.8-0.7-13.6,1.2-19.2,5.2l-0.2,0.1
				c-1.1,0.4-1.8,1.4-1.8,2.5c-0.5,3.9-1.3,7.7-2,11.9c-10.2-9.3-22-13.6-35.9-14.4l1.8-1c10.5-5.7,21.1-11.3,31.6-17
				c1.2-0.7,1.9-1,0.8-2.6C442.6,23.3,435,12,427.5,0.6c-0.8-1.1-1.3-1.4-2.7-0.8c-6,2.7-11.4,6.2-15.3,11.7
				c-0.2,0.3-0.4,0.6-0.7,0.8c-12.3,14.1-24.6,28.2-37,42.3c-1.2,1.4-1.3,2.2,0,3.5c1.9,2,3.5,4.2,5.4,6.3c0.9,1,0.8,1.5-0.4,2.1
				c-1.7,0.7-3.4,1.6-4.9,2.6c-1.7,1.2-2.7,0.7-4.1-0.5c-11.1-10-22.3-19.9-33.5-29.7c-0.7-0.6-1.2-1.7-2.4-0.9
				c-4,2.8-9.4,3.4-12.1,9v-8.5c-13.6,4.3-27,8.6-40.4,12.9c-9.8,3.2-20,5.6-28.9,11.2c-1.2,0.5-1.9,1.7-1.7,3
				c0.5,8.3,0.9,16.7,1.3,25c0.1,1.6-0.4,4,0.5,4.6c1.2,0.9,3.1-0.4,4.8-0.8c5.3-1.3,5.2-1.3,5.8,4.1c0.1,1.3,0,1.7-1.4,1.5
				c-6.2-0.7-12.5-0.2-18.5,1.6c-6.2,1.7-12,4.4-17.2,8.1c-0.1-0.3-0.1-0.6-0.1-0.9c0.1-0.5,0.2-1,0.2-1.4
				c1.9-10.7,0.5-20.8-4.8-30.3c-6.6-11.9-16.7-19.8-29.1-24.6c-15-5.8-30.8-5.9-46.5-3.7C124.7,51.5,107,58,90.2,67.3
				C80.5,72.5,70.8,78,63.6,86.6C63,87.3,62.2,87.7,63,89c9.3,15.6,18.6,31.3,27.9,47c0.6,1.1,1.2,1.2,2.3,0.7
				c2.3-1.1,4.9-1.9,7.1-3.1c2.1-1.2,2.7-0.4,3.6,1.5c15,34.1,30,68.2,45,102.3c0.8,1.7,1.4,2,3.2,1.4c8-2.7,16-5.1,24-7.8
				c9.7-3.2,19.9-5.4,28-12.3c1.2-1,1.5-1.6,1.1-3.1c-2.1-7.9-4.2-15.8-6.2-23.7c-0.6-2.5-1.6-5-1.8-7.8c1.1,0.6,1.4,1.5,1.9,2.2
				c10.3,14.6,24.3,20.5,42,18.1c10.3-1.4,19-6.2,26.9-12.6c0.5-0.4,0.9-1.3,1.8-0.9c0.4,4.5,0.9,9.1,1.1,13.6
				c0.1,2,0.8,2.4,2.7,2.1c9.4-1.5,18.9-2.7,28.4-4.3c5.2-0.9,10.7-0.7,15.4-3.7c2.3-1.5,5.7-2.1,7-4.1s0.4-5.3,0.4-8.1
				c0-6,0-12,0-18.3l3.9,1.9c23.9,11.8,47.8,23.7,71.7,35.6c2,1,3.4,0.5,6.1-2.2c0.5-0.5,1-0.8,1.7-0.9c4.2-0.8,5-1.8,5-4.2
				c-0.1-10.7,0-21.4-0.1-32.1c0-1.4,0.2-2.1,1.9-2.4c4.2-0.7,8.4-1.9,12.3-3.6c3.6-1.5,7-3.4,10.7-5.4c-0.1,0.7-0.1,1.1-0.2,1.5
				c-0.9,5.5-1.8,11-2.7,16.5c-0.2,1.1-0.5,2.1,1.3,2.4"/>
			<path class="st1" d="M418.5,54.8l-1.8,1c13.8,0.7,25.6,5.1,35.8,14.4c0.7-4.2,1.4-8.1,2-11.9c0-1.2,0.7-2.2,1.8-2.6l0.2-0.1
				c5.5-4,12.4-5.8,19.2-5.1c6.5,0.5,13.1,0.1,19.7,0.1c1.1,0,2.2-0.3,3.1-0.9c3.1-1.9,6.4-3.5,9.6-5.2c0.7-0.3,1.6-0.4,2.4-0.3
				c11.9,0,23.9,0.1,35.8-0.1c2,0,2.4,0.7,2.7,2.4c2.8,17.9,5.6,35.7,8.4,53.5c0.1,0.3,0.2,0.6,0.3,0.8c3.8-2.6,7.9-4.8,12.2-6.4
				c5.3-2,11-3.1,16.7-3.2c1.6,0,2-0.4,2-2c-0.2-8.8-0.2-17.5-0.3-26.3c0-1.5,0.3-2.5,1.8-3c0.1,0,0.1-0.1,0.2-0.1
				c3.4-1.4,6.1-4.7,9.9-4.5s7.3,1.5,10.9,2.2c15.1,3.3,30.2,6.7,45.3,9.9c2,0.4,3.1,1.2,3.2,3.3c0.2,1.3,0.4,2.5,0.7,3.8
				c2.2-1.2,4.2-2.3,6.3-3.4c1-0.6,2.3-0.8,3.5-0.5c15.6,3.8,31.3,7.7,47,11.4c1.9,0.5,2,1.1,1.5,2.7
				c-15.9,47.8-31.8,95.5-47.6,143.3c-0.4,1.2-1.2,2.2-2.3,2.7c-3.2,1.5-6.2,4.2-9.5,4.6s-6.6-1.7-9.9-2.8
				c-8.5-2.7-16.9-5.4-25.4-8.1c-1.5-0.5-2-1.1-2-2.7c0.1-3.4-0.2-6.8-0.1-10.2c0-1.8-0.5-2.5-2.3-2.8c-9.5-1.3-18.9-2.7-28.4-4
				c-5.2-0.7-5.3-0.6-4.8-5.8c0.4-4.6,1-9.1,1.5-14.1c-4.7,2.2-9.8,3.6-15,4.1c-1.3,0.1-1,0.8-0.9,1.7c0.6,3.3,1,6.6,1.6,9.8
				c0.4,1.2-0.2,2.4-1.4,2.8H572c-1.7,0.7-3.4,1.6-4.9,2.6c-3.2,2.3-6.4,2.4-10.7,1.1c-14.6-4.4-29.7-6.8-44.9-7.9
				c-2.6-0.2-3.1-0.8-3.2-2.6c-0.4-3.9-0.9-7.9-1.4-12.1c-2.3,1.3-4.5,2.4-6.5,3.6c-1.5,0.9-2.4,1-3.2-0.8c-1.2-2.6-2.7-5-4-7.5
				c-0.6-1.2-1.2-1.3-2.2-0.6c-5.1,4-10.7,4-16.9,2.8c-12.2-2.4-24.6-4.1-36.9-6c-1.9-0.3-1.5-1.3-1.3-2.4c0.9-5.5,1.8-11,2.7-16.5
				c0.1-0.4,0.1-0.8,0.2-1.5c-3.6,2-7.1,3.9-10.7,5.4c-3.9,1.7-8.1,2.9-12.3,3.6c-1.7,0.3-1.9,1-1.9,2.4c0,10.7,0,21.4,0.1,32.1
				c0,1.7-0.4,2.7-2.2,3.4c-2.3,0.9-4.5,2.1-6.6,3.5c-1.1,1-2.7,1.1-4,0.4c-23.9-11.9-47.8-23.7-71.7-35.6l-3.9-1.9
				c0,6.3,0,12.3,0,18.3c0,2.8,0.9,6.1-0.4,8.1s-4.7,2.6-7,4.1c-4.7,3-10.2,2.9-15.4,3.7c-9.4,1.6-18.9,2.8-28.4,4.3
				c-1.9,0.3-2.5-0.1-2.7-2.1c-0.3-4.5-0.7-9-1.1-13.6c-0.9-0.4-1.3,0.5-1.8,0.9c-8,6.4-16.7,11.2-26.9,12.6
				c-17.6,2.4-31.7-3.6-42-18.1c-0.5-0.7-0.8-1.6-1.9-2.2c0.2,2.9,1.2,5.3,1.8,7.8c2,7.9,4.1,15.8,6.2,23.7c0.4,1.5,0.1,2.1-1.1,3.1
				c-8.1,6.9-18.3,9-28,12.3c-8,2.7-16,5.1-24,7.8c-1.7,0.6-2.4,0.3-3.2-1.4c-15-34.1-30-68.2-45-102.4c-0.8-1.9-1.5-2.6-3.6-1.5
				c-2.2,1.3-4.8,2-7.1,3.1c-1.1,0.5-1.7,0.4-2.3-0.7c-9.2-15.7-18.5-31.4-27.9-47c-0.8-1.3,0-1.7,0.6-2.4
				c7.2-8.6,16.8-14,26.5-19.3c16.8-9.2,34.6-15.8,53.6-18.5c15.8-2.2,31.5-2,46.5,3.7c12.4,4.7,22.5,12.6,29.2,24.5
				c5.3,9.5,6.7,19.7,4.8,30.3c-0.1,0.5-0.2,1-0.2,1.4c-0.1,0.8-0.1,1.1,0,1.4c5.2-3.7,11-6.4,17.2-8.2c6-1.7,12.3-2.2,18.5-1.6
				c1.5,0.2,1.6-0.2,1.4-1.5c-0.6-5.4-0.5-5.4-5.8-4.1c-1.6,0.4-3.6,1.7-4.8,0.8c-0.9-0.6-0.4-3-0.5-4.6c-0.4-8.3-0.8-16.7-1.3-25
				c-0.2-1.3,0.5-2.5,1.7-3c8.9-5.6,19-8,28.9-11.2c13.4-4.3,26.8-8.6,40.4-13v8.5c2.7-5.6,8.2-6.2,12.1-9c1.2-0.8,1.7,0.3,2.4,0.9
				c11.2,9.9,22.3,19.8,33.5,29.7c1.4,1.3,2.5,1.7,4.1,0.5c1.5-1,3.2-1.9,4.9-2.6c1.2-0.6,1.4-1,0.4-2.1c-1.9-2-3.5-4.3-5.4-6.3
				c-1.3-1.3-1.2-2.2,0-3.5c11.7-13.3,23.3-26.6,34.9-40c0.9-1,2.3-2.7,3.1-3.8c4-5.1,9.2-8.3,15-11c1.4-0.6,1.9-0.4,2.6,0.8
				c7.6,11.3,15.2,22.6,22.8,33.9C452,36.8,419.7,54.1,418.5,54.8 M420.1,22.2c-6.9,8.3-13.7,16.7-20.8,24.8c-2,2.2-0.2,3.3,0.5,4.7
				c1,1.8,2,0.1,3-0.2c0.5-0.1,0.9-0.3,1.3-0.5l27.6-14c1.5-0.7,3-1.5,4.6-2.1s1.3-1.4,0.5-2.5c-1.9-2.5-3.7-5-5.6-7.5
				c-2.1-2.9-4.3-5.7-6.5-8.6L420.1,22.2z M200.6,132.3L200.6,132.3c4.7-5.3,8.2-11.5,10.5-18.2c5.5-15.4,2.8-29.1-9.4-40.2
				c-7.3-6.7-16.6-11-26.4-12.3c-9.8-1.5-19.7-1.6-29.4-0.2c-11.3,1.7-22.3,4.7-32.8,9.2c-8.3,3.3-16.2,7.4-23.8,12.1
				c-0.8,0.5-1.9,0.9-0.6,2c5.5,9.4,11.1,18.8,16.5,28.2c0.7,1.2,1.3,0.8,2.1,0.4c3.2-1.6,6.3-3.1,9.4-4.8c1.1-0.6,1.5-0.6,2.1,0.7
				c9,20.3,18,40.5,27.1,60.8c7,15.7,14.1,31.4,21.1,47.2c0.4,0.8,0.5,1.7,1.8,1.3c5.7-1.9,11.5-3.8,17.2-5.7c1.5-0.5,3-1,4.6-1.3
				c1.3-0.2,1.2-0.7,0.9-1.8c-4.9-18.4-9.7-36.8-14.4-55.3c0-1.1,1-1.3,1.7-1.8c7.9-5.2,15.1-11.1,20.9-18.7
				C200.1,133.4,200.5,132.9,200.6,132.3z M558.4,113.3c-9,8.4-14.2,18.5-14.1,31c-0.1,7.1,2.3,14,6.9,19.3
				c7.7,9,17.7,12.2,29.3,10.5c10.4-1.4,19.9-6.6,26.6-14.6c0.4-0.3,0.8-0.6,1.1-0.9c7.1-8.9,11.3-18.6,10.2-30.3
				c-0.9-8.5-4.4-15.6-11.2-20.7c-8.7-6.7-18.6-7.9-29-5.4C570.6,103.9,563.8,107.7,558.4,113.3L558.4,113.3z M225.8,122
				c-10.9,10-16.8,22.1-15.1,37.3c0.8,8.8,5.4,16.8,12.6,21.9c7.7,5.7,16.5,7.1,25.8,5.6c10.2-1.6,19.5-6.8,26.3-14.6
				c0.3-0.2,0.6-0.5,0.9-0.8c8.2-10,13-21.1,11.3-34.4c-1.1-8.4-4.9-15.4-11.6-20.6c-8.7-6.7-18.6-8.1-29-5.9
				C239,112.1,231.6,116.1,225.8,122z M429.8,117.5c-1.4,0.6-2.7,1.3-4.1,1.8c-4.3,1.5-8.7,2.9-13.4,2.2c2.1-2.3,4.2-4.7,6.3-7
				c8.1-8.7,16.3-17.3,24.4-26c1.4-1.5,2.8-3.2,4.3-4.6c1-1,0.9-1.6,0-2.5c-3.1-3.4-6.7-6.3-10.7-8.6c-12.7-7-26-6.9-39.4-2.6
				c-6.6,2.1-12.7,5.3-17.6,10.4c-12.1,11.1-15.4,24.8-11.3,40.3c4.4,16.7,19.7,25.8,36.2,26.9c6.9,0.4,13.8-0.4,20.5-2.4
				c10.3-3,19.9-7.1,27.9-14.5c2.1-1.1,3.4-3.2,5.2-4.7c-5.8-5.3-11.6-10.5-17.3-15.7c-1.3-1.2-2.2-1.2-3.3,0.2s-2.5,2.7-3.8,4
				L429.8,117.5z M510.7,99.1c-1.2-6.8-2.4-13.5-3.6-20.3c-0.9-4.9-1.7-9.9-2.8-14.8c-0.2-1,0.5-2.8-1.7-2.8c-8.6,0-17.2,0-25.8,0
				c-0.9,0-1.6,0.2-1.6,1.1c0,1.5-0.8,2.8-0.5,4.3c-1,4-1.4,8-2.1,12c-2,12-4.2,24.1-6.2,36.1c-0.5,1.7,0.2,3.4,1.7,4.3
				c2.1,1.6,4,3.2,5.9,5c0.9,0.7,0.7,1.2,0,1.9c-3,3.1-5.9,6.5-9.1,9.4c-1.7,1.6-2.7,3.7-2.8,6.1c0,0.6-0.2,1.1-0.3,1.6
				c-0.9,5.4-1.7,10.9-2.7,16.3c-0.2,1.1,0.1,1.5,1.2,1.7c2.9,0.4,5.8,1.1,8.7,1.6c4.7,0.7,9.2,1.9,14,2.2c1.5,0.1,3.6,2.2,4.3-1
				c0.5-2.4,0.7-4.9,1.1-7.4c1-6.6,2.2-13.3,3.1-19.9c0.6-3.9,1.5-7.7,1.6-11.7c0.3-0.4,0.6-1.2,1.1-0.1c0.7,1.4,1.3,2.9,2,4.3
				c4.3,9.2,8.6,18.3,13,27.5c0.3,1.1,0.8,2.2,1.5,3.1c0.6-1.6,1.2-3,1.7-4.4c2.9-7.5,5.7-15,8.6-22.5l0.9-1.4
				c0.9,6.2,1.8,12.2,2.7,18.1s1.8,12,2.8,18c0.8,5,1.7,10.1,2.4,15.1c0.1,1,0.4,1.2,1.4,1.4c2.7,0.3,5.4,0.8,8,1.2
				c4.8,0.7,9.6,1.4,14.4,2.1l5.6,1c0.6-4.9-0.3-6.4-4.3-8.8c-13.2-7.7-20.1-19.4-20.8-34.5c-0.5-11.7,3.3-22.2,10.4-31.3
				c2.7-3.5,2.8-6.6,2.1-10.4c-0.1-0.6-0.2-1.1-0.3-1.7c-1-6.8-2-13.6-3-20.4c-1.2-8.1-2.6-16.2-3.7-24.2c-0.2-1.4-0.7-2-2.1-1.9
				c-5.7,0.1-11.3,0.1-17,0c-1,0-1.6,0.2-1.8,1.2c-0.2,1.3-0.3,2.7-0.5,4c-0.6,1.1-0.5,2.3-0.7,3.5c-1.4,7.8-2.8,15.6-4.3,23.5
				C512.3,91.1,512.1,95.2,510.7,99.1z M396.7,180.9c1.7,1.1,3.5,2,5.4,2.7c0-6.6,0-13.1,0-19.6c0-1.6,0.5-3.6-0.3-4.7
				c-0.6-0.9-2.8-0.6-4.3-0.8c-0.5-0.1-0.9-0.3-1.4-0.4c-14.5-2.9-26-10.3-33.8-23c-0.8-1.3-1.9-2.3-3.4-2.9
				c-10.8-4.2-21.5-8.5-32.2-12.8c4.2-4.4,8.4-8.8,12.5-13.2c6.4-6.7,12.7-13.5,19.1-20.2c0.8-0.7,1.5-1.4,2.3-2.2
				c2.9-3,2.8-3-0.2-5.9c-7.7-7.4-15.4-14.8-23.2-22.2L333,62c-5.2,7.2-10.3,14.4-15.5,21.6c-2.4,3.2-4.2,6.8-7.2,9.5
				c-0.7-12.3-1.3-24.7-2-37c-0.8,0-1.5,0.1-2.3,0.4c-10.4,3.1-20.7,6.3-31.2,9.2c-2.5,0.7-3.6,1.6-2.9,4.1c-0.2,2.2,0,4.4,0.5,6.6
				c2.8-0.7,5.5-1.5,8.2-2.2c1.2-0.3,1.9-0.3,2,1.5c0.1,4.6,0.6,9.2,1,13.8c0.6,7,1.3,14,1.8,20.9c0,1.3,0.6,2.5,1.5,3.4
				c7.4,7.7,10.8,17.1,11.2,27.5c0.4,9.7-2.2,18.8-6.9,27.3c-0.5,0.6-0.7,1.3-0.8,2c0.5,5.5,0.9,11.1,1.4,16.6
				c0.1,1.2,0.4,1.6,1.8,1.4c5.4-0.8,10.8-1.5,16.2-2.2l3.3-0.4c1-0.1,1.6-0.4,1.6-1.6c-0.1-14.5-0.1-29.1-0.1-43.6
				c0.5-2,1.3-0.3,1.8-0.1c19.1,9.5,38.2,19,57.3,28.6C381.2,173.3,389,177.1,396.7,180.9L396.7,180.9z M673.7,88.8
				c-3.4,13.8-6.7,27.7-10.2,41.4c-0.7,2.6-0.6,5.5-2.4,7.8c-0.2-1.4-0.3-2.9-0.6-4.2c-2.7-12.8-5.4-25.5-8.1-38.3
				c-1.2-5.7-2.3-11.4-3.6-17.1c-0.2-0.9-0.3-1.9-1.8-2.2c-10.8-2-21.6-4.2-32.4-6.3c-5.8-1.1-5.8-1.1-5.5,4.9
				c-0.3,4.7-0.3,4.8,3.5,5.8c1.5,0.4,3.3,0.3,4.3,1.2c1.2,1.1-0.1,2.9-0.1,4.3c0,0.4,0,0.8,0,1.2c-0.4,4.2-0.6,8.3-1.2,12.5
				c-0.3,1.1,0,2.4,0.9,3.2c10.7,10.6,13.5,23.7,10.8,38c-2.2,12-8.5,21.9-17.6,30.1c-0.7,0.5-1.1,1.2-1.2,2c-0.3,4-0.8,8-0.9,12
				c0,1.2-1.1,2.6-0.2,3.7s2.5,0.6,3.7,0.8c5,0.7,9.9,2,14.9,2.2c3,1.1,3.8,0.9,4.2-1.6c0.8-4.1,1.4-8.2,2.1-12.3
				c1.4-7.8,2.8-15.6,4.2-23.3c1.1-6.4,2.1-12.8,3.2-19.2c0.8,2.7,0.7,5.6,0.8,8.3c0.4,17.1,0.8,34.2,1,51.3c0,4.7,0.6,9.4,0.5,14.1
				c0,0.6,0,1.1,0.9,1.3c5.7,1.6,11.3,3.6,17.1,4.9c2,1.3,2.8,0.8,3.6-1.6c8.1-24.9,16.4-49.7,24.7-74.6c5.2-15.7,10.4-31.3,15.6-47
				c0.6-1.7,0.6-2.6-1.5-3c-7.6-1.6-15.1-3.3-22.6-4.9C674.4,82.9,674.3,83,673.7,88.8L673.7,88.8z M355.2,104.8L345,115.6l11.4,4.4
				C355.7,115.1,355.3,110,355.2,104.8L355.2,104.8z M197.5,184.5l-0.1-0.2c-0.1,0.1-0.1,0.2-0.1,0.3l0.1,0.1L197.5,184.5z"/>
			<path class="st0" d="M199.1,133.5c-5.8,7.5-13,13.4-20.9,18.7c-0.7,0.5-1.7,0.7-1.7,1.8c-2.2,0.3-3.5,2.1-5.2,3.3
				c-0.6,0.4-0.3,1.1-0.1,1.8c4.8,17.8,9.5,35.6,14.3,53.3c-5.7,1.9-11.5,3.8-17.2,5.7c-1.3,0.4-1.5-0.4-1.8-1.3
				c-7-15.7-14.1-31.5-21.1-47.2c-9.1-20.2-18.1-40.5-27.1-60.8c-0.6-1.3-1-1.2-2.1-0.7c-3.1,1.6-6.3,3.2-9.4,4.8
				c-0.8,0.4-1.4,0.8-2.1-0.4c-5.4-9.4-11-18.8-16.5-28.2c1.3-0.3,2.6-0.9,3.8-1.7c8.6-4.6,17.6-8.5,26.9-11.4
				c9.2-3.1,18.8-5,28.6-5.8c7.8-0.5,15.7-0.1,23.4,1.2c10.8,1.7,20.8,7.1,28.1,15.2c7,7.6,10.2,16.5,9.1,27
				c-0.8,7.2-3.2,14.2-6.9,20.5c-0.6,0.8-0.9,1.7-0.9,2.7l0,0C199.1,132.1,199,132.7,199.1,133.5z M159.2,97.6
				c-0.2-0.2-0.4-0.5-0.5-0.4c-1.8,0.6-3.5,4.1-3,5.8c2.2,7.3,4.3,14.7,6.5,22c1.7,5.5,3.4,10.9,5.2,16.4c0.2,0.6,0.2,2,1.4,1.3
				s2.6-1.1,2.9-2.6c2.5-1.2,4.7-2.7,6.8-4.5c7-5.4,12.7-11.5,13.4-21c1.1-14.2-9.6-20.8-20.8-20.2C167,94.7,162.9,95.8,159.2,97.6z
				"/>
			<path class="st0" d="M625.6,191.4c-5-0.2-9.9-1.5-14.9-2.2c-1.2-0.2-2.8,0.3-3.7-0.8s0.1-2.4,0.2-3.7c0.1-4,0.6-8,0.9-12
				c0.1-0.8,0.6-1.5,1.2-2c9-8.2,15.3-18.1,17.6-30.1c2.7-14.3-0.1-27.4-10.8-38c-0.9-0.8-1.2-2-0.9-3.2c0.6-4.1,0.8-8.3,1.2-12.5
				c0-0.4,0-0.8,0-1.2c0-1.5,1.3-3.3,0.1-4.3c-1-0.9-2.8-0.8-4.3-1.2c-3.8-1-3.8-1-3.5-5.8c1.5,0.3,3,0.7,4.5,1
				c9.4,1.9,18.8,3.9,28.1,5.8c1.1,0,1.9,0.9,1.9,2c0.4,2.9,1.1,5.7,1.7,8.5c2.8,13.4,5.6,26.8,8.5,40.2c0.8,3.7,1.6,7.3,2.5,11.4
				c1.8-2.1,4-3.2,4.8-5.5c1.8-2.3,1.7-5.2,2.4-7.8c3.5-13.8,6.8-27.6,10.2-41.4c7.8,2.1,15.7,3.6,23.5,5.3c1.8,0.4,2.2,0.8,1.6,2.6
				c-3,8.9-5.8,17.8-8.8,26.7c-5.1,15.4-10.3,30.8-15.4,46.2c-4.6,13.8-9.1,27.6-13.7,41.4c-0.6,1.3-0.9,2.6-0.9,4
				c-5.8-1.4-11.4-3.3-17.1-4.9c-0.9-0.3-0.9-0.7-0.9-1.3c0.1-4.7-0.5-9.4-0.5-14.1c-0.2-17.1-0.6-34.2-1-51.3
				c-0.1-2.8,0-5.6-0.8-8.3c-3.5,1.3-4.9,3.9-5.5,7.4c-1.9,11.7-4.1,23.3-6,34.9C627,182,625.8,186.6,625.6,191.4z"/>
			<path class="st0" d="M357.8,85.8c-6.4,6.7-12.7,13.5-19.1,20.2c-4.1,4.4-8.3,8.8-12.5,13.2c-0.8,1.3-1.9,2.5-3.1,3.4
				c-1.8,1.5-1.1,2.2,0.6,2.9c9.2,3.6,18.5,7.3,27.6,11c1.7,0.7,3.7,0.9,4.8,2.9c2.6,4.5,6,8.6,9.9,12c7.9,6.8,17.8,11.1,28.2,12.2
				c1.8,0.2,2.4,0.7,2.4,2.5c-0.1,4.3,0,8.6,0,12.9c0,0.6,0.1,1.3-0.5,1.8c-7.8-3.8-15.5-7.6-23.2-11.4
				c-19.1-9.5-38.2-19.1-57.3-28.6c-0.5-0.2-1.3-1.9-1.8,0.1c-3,2-5.8,4-5.3,8.3c0.3,1.8,0.5,3.7,0.6,5.5c0,10.6,0,21.2,0,31.8
				c-5.4,0.7-10.8,1.3-16.2,2.2c-1.4,0.2-1.7-0.2-1.8-1.4c-0.4-5.5-0.9-11.1-1.4-16.6c0-0.7,0.3-1.4,0.8-2
				c4.6-8.5,7.2-17.6,6.9-27.3c-0.4-10.4-3.9-19.8-11.2-27.6c-0.9-0.9-1.4-2.1-1.5-3.4c-0.5-7-1.2-14-1.8-20.9
				c-0.4-4.6-0.9-9.2-1-13.8c0-1.8-0.8-1.8-2-1.5c-2.7,0.7-5.4,1.4-8.2,2.2c-0.5-2.2-0.7-4.4-0.5-6.6c0.6-0.1,1.3-0.2,1.9-0.3
				c8.5-2.5,17.1-5,25.7-7.5c3.4-1,3.8-0.8,3.9,2.8V65c-0.1,7.3,0.8,14.6,1.1,22c0.2,4.2-0.2,8.4,1.1,12.7c0.8-1,1.5-2,2.2-2.9
				c0.8-1.2,1.6-2.4,2.4-3.6c2.9-2.8,4.8-6.3,7.2-9.5c5.3-7.1,10.4-14.4,15.5-21.6c0.4,0.3,0.9,0.7,1.3,1c4.3,4,8.8,7.8,12.9,12
				C350.2,78.7,354.5,81.7,357.8,85.8z"/>
			<path class="st0" d="M553,187c-4.8-0.7-9.6-1.4-14.4-2.1c-2.7-0.4-5.3-0.9-8-1.2c-1-0.1-1.3-0.4-1.4-1.4
				c-0.7-5-1.6-10.1-2.4-15.1c-0.9-6-1.9-12-2.8-18c-0.9-5.9-1.8-11.9-2.7-18.1l-0.9,1.4c-2.2,1-4,2.8-4.8,5.1
				c-1.1,2.7-2.2,5.4-3.2,8.1c-1.2,3.6-3,6.9-3.8,10.7c-4.3-9.2-8.6-18.3-13-27.5c-0.7-1.4-1.3-2.9-2-4.3c-0.5-1-0.8-0.3-1.1,0.1
				c-2.8,1.6-4.9,3.7-5.3,7.2c-0.8,6-1.8,11.9-2.7,17.8c-0.7,5-1.9,9.9-2.2,15c-4.7-0.3-9.3-1.5-14-2.2c-2.9-0.4-5.8-1.1-8.7-1.6
				c-1.1-0.2-1.4-0.6-1.2-1.7c0.9-5.4,1.8-10.9,2.7-16.3c0.1-0.6,0.2-1.1,0.3-1.6c0.1-2.3,1.1-4.5,2.8-6.1c3.2-3,6.1-6.3,9.1-9.4
				c0.7-0.7,0.9-1.2,0-1.9c-1.9-1.8-3.9-3.4-5.9-5c-1.5-0.9-2.2-2.7-1.7-4.3c2.1-12,4.2-24.1,6.2-36.1c0.7-4,1.1-8.1,2.1-12
				c7.2,0,14.4,0,21.6,0c1.1,0,2.3-0.2,2.6,1.4c1.1,6.3,2.3,12.5,3.4,18.8c1,5.5,2,10.9,2.9,16.4c0.1,0.6,0.4,1.6,1.1,0.9
				c1.5-1.5,3.5-2.6,4.2-4.8c1.4-3.9,1.6-8,2.4-12c1.5-7.8,2.8-15.6,4.3-23.5c0.2-1.2,0.1-2.4,0.7-3.5c4.6,0,9.2,0,13.9,0
				c1.3,0,2,0.1,2.2,1.7c0.5,4.2,1.2,8.4,1.9,12.6c2,12.6,3.8,25.3,5.9,37.9c0.4,1.7-0.1,3.5-1.3,4.8c-8.8,10.8-12.9,23.2-11.3,37
				c1.7,14.1,9.2,24.7,22,31.3C551.7,185.7,552.8,185.7,553,187z"/>
			<path class="st0" d="M442.5,88.3c-8.1,8.7-16.3,17.3-24.4,26c-2.1,2.3-4.2,4.7-6.3,7l-5,5.4c7.3-0.2,13.5-1.8,19-5.7
				c1.3-1,3.4-1.5,3.5-3.7l3.9-2.9c0.5,0.1,0.9,0.3,1.3,0.6c3.5,3.1,6.8,6.4,10.4,9.3c2.6,2,4.5,4.9,7.5,6.3
				c-8,7.4-17.6,11.6-27.9,14.5c-6.6,2-13.6,2.8-20.5,2.4c-16.5-1.1-31.8-10.2-36.2-26.9c-4.1-15.5-0.8-29.2,11.3-40.3
				c1,0,1.9-0.3,2.7-0.9c7.6-4.4,16.2-6.9,25.1-7.3c9.4-0.6,18.8,1.9,26.6,7.2C437.1,81.8,440.5,84.3,442.5,88.3z M394.3,120.7
				c0.8-0.3,1.3,1.6,2.4,0.3c2.4-2.9,5-5.7,7.5-8.6c5.6-6.4,11.1-12.8,16.8-19.1c2.6-2.9,2.7-2.8-0.3-5.3c-0.2-0.2-0.4-0.3-0.6-0.4
				c-9.3-6.4-20.4-5-28.1,3.4c-0.3-2.2-1.2-0.6-1.6-0.1c-8.3,8.1-9.1,21.2-1.8,30.2C390.8,124,391.5,123.8,394.3,120.7z"/>
			<path class="st0" d="M275,172c-6.8,7.8-16.1,13-26.3,14.6c-9.3,1.5-18.1,0.1-25.8-5.6c-7.2-5.1-11.8-13.1-12.6-21.9
				c-1.7-15.1,4.2-27.2,15.1-37.3c0.9,0.2,1.5-0.4,2.2-0.8c8.7-4.9,17.9-7.8,28-6c14.7,2.5,25,12.8,26.7,28.1c1,9-1.2,17.5-5.7,25.3
				C275.9,169.6,274.9,170.5,275,172z M255,118.9c0.2,0,0.4-0.1,0.6-0.1c-0.1-0.4-0.4-0.2-0.6-0.3c-7.7-0.8-13.9,1.9-18.7,7.8
				c-2.2,0-2.7,2.2-3.8,3.4c-5.4,6.2-5.6,16.6-0.4,22.4c7,7.9,17.3,9.6,26.3,4.3c2.5-1.5,5.3-2.8,6.4-5.9c3.7-3.4,6.6-7.3,7.2-12.4
				c0.4-3.9-0.1-7.7-2.8-10.9c-1.5-0.1-5.7,3.7-5.2,5c0.7,1.9-0.3,3.6,0,5.4c-4.4,2.7-10,2.4-14.1-0.7c-4.3-3.4-5.4-8.4-2.7-12.7
				C251,124.2,253.5,122.2,255,118.9L255,118.9z"/>
			<path class="st0" d="M606.6,159.3c-6.7,8-16.2,13.2-26.6,14.6c-11.7,1.7-21.6-1.5-29.3-10.5c-4.6-5.4-7.1-12.3-6.9-19.3
				c0-12.6,5.2-22.7,14.1-31c0.6,0,1.1-0.1,1.6-0.4c8-4.8,16.5-7.5,26-6.4c8,0.9,15.2,4,20.2,10.3c8.8,10.9,9.1,23,4.1,35.6
				C608.8,154.6,606.8,156.5,606.6,159.3z M599.8,117.9c-2.2,0.8-4,2.4-4.9,4.6c-0.6,1.5-0.1,3.8-0.4,5.8c-2.9,2-6.5,2.4-9.8,1.3
				c-7.2-2.1-10.2-9.3-7.1-14.5c4.2-0.3,7.3-2,9-6c-2.3-0.6-4.7-0.7-7.1-0.2c-5.3,0.9-10,3.8-13.2,8.2c-2.3,1.1-3.4,3.4-4.6,5.4
				c-4.6,7.4-4.1,13.9,0.3,19.7c6.2,8.1,16.2,10.1,25.4,5.4c2.6-1.3,5.5-2.6,6.6-5.7c1.5-1.4,3-2.6,4.4-4.1
				C603.1,132.2,603.7,123.4,599.8,117.9z"/>
			<path class="st2" d="M553,187c-0.2-1.2-1.3-1.3-2.2-1.7c-12.8-6.6-20.4-17.2-22-31.3c-1.6-13.8,2.5-26.2,11.3-37
				c1.2-1.3,1.7-3.1,1.3-4.8c-2.1-12.6-4-25.2-5.9-37.9c-0.6-4.2-1.4-8.4-1.9-12.6c-0.2-1.6-0.9-1.8-2.2-1.7c-4.6,0-9.2,0-13.9,0
				c0.2-1.3,0.2-2.7,0.5-4c0.2-1,0.8-1.2,1.8-1.2c5.7,0.1,11.3,0.1,17,0c1.5,0,1.9,0.5,2.1,1.9c1.2,8.1,2.5,16.1,3.7,24.2
				c1,6.8,2,13.6,3,20.4c0.1,0.6,0.2,1.1,0.3,1.7c0.8,3.7,0.7,6.8-2.1,10.4c-7.1,9.1-10.9,19.6-10.4,31.3
				c0.7,15.1,7.6,26.8,20.8,34.5c4,2.4,4.9,3.9,4.3,8.8L553,187z"/>
			<path class="st2" d="M200.1,132.1c0-1,0.3-1.9,0.9-2.7c3.7-6.3,6.1-13.2,6.9-20.5c1.1-10.5-2-19.4-9.1-27
				c-7.3-8.2-17.3-13.5-28.1-15.2c-7.7-1.3-15.6-1.7-23.4-1.2c-9.7,0.7-19.3,2.7-28.6,5.8c-9.3,3-18.3,6.8-26.9,11.4
				c-1.1,0.8-2.4,1.3-3.8,1.7c-1.2-1.1-0.2-1.5,0.6-2c7.6-4.7,15.5-8.7,23.8-12.1c10.5-4.4,21.5-7.5,32.8-9.2
				c9.8-1.3,19.7-1.3,29.4,0.2c9.9,1.3,19.1,5.6,26.4,12.4c12.2,11.2,14.9,24.8,9.4,40.2C208.3,120.6,204.7,126.8,200.1,132.1z"/>
			<path class="st2" d="M396.2,180.7c0.6-0.5,0.5-1.1,0.5-1.8c0-4.3,0-8.6,0-12.9c0-1.8-0.6-2.3-2.4-2.5
				c-10.4-1.1-20.2-5.3-28.2-12.2c-4-3.4-7.3-7.5-9.9-12c-1.1-2-3.1-2.2-4.8-2.9c-9.2-3.8-18.4-7.4-27.6-11
				c-1.7-0.7-2.4-1.4-0.6-2.9c1.2-0.9,2.3-2.1,3.1-3.4c10.7,4.3,21.5,8.6,32.2,12.8c1.4,0.5,2.6,1.5,3.4,2.9
				c7.8,12.7,19.3,20.1,33.8,23c0.5,0.1,0.9,0.3,1.4,0.4c1.5,0.2,3.7,0,4.3,0.8c0.8,1.1,0.3,3.1,0.3,4.7c0,6.5,0,13,0,19.6
				C399.7,182.8,397.9,181.8,396.2,180.7z"/>
			<path class="st2" d="M660.6,137.9c-0.8,2.4-3,3.4-4.8,5.5c-0.9-4.1-1.7-7.8-2.5-11.4c-2.8-13.4-5.7-26.8-8.5-40.2
				c-0.6-2.8-1.3-5.7-1.7-8.5c0-1.1-0.9-2-1.9-2c-9.4-1.9-18.8-3.8-28.1-5.8c-1.5-0.3-3-0.6-4.5-1c-0.3-6-0.3-6,5.5-4.9
				c10.8,2.2,21.6,4.4,32.4,6.4c1.4,0.3,1.6,1.3,1.8,2.2c1.2,5.7,2.4,11.4,3.6,17.1c2.7,12.8,5.4,25.5,8.1,38.3
				C660.3,135,660.4,136.4,660.6,137.9z"/>
			<path class="st2" d="M659.6,214.9c0.1-1.4,0.4-2.7,0.9-4c4.6-13.8,9.1-27.6,13.7-41.4c5.1-15.4,10.3-30.8,15.4-46.2
				c3-8.9,5.8-17.8,8.8-26.7c0.6-1.8,0.2-2.2-1.6-2.6c-7.9-1.7-15.8-3.2-23.5-5.3c0.6-5.8,0.7-5.9,6-4.8c7.6,1.6,15.1,3.4,22.6,4.9
				c2.1,0.4,2.1,1.3,1.5,3c-5.2,15.7-10.4,31.3-15.6,47c-8.2,24.8-16.5,49.7-24.7,74.6C662.4,215.7,661.6,216.2,659.6,214.9z"/>
			<path class="st2" d="M275,172c-0.2-1.4,0.9-2.4,1.5-3.5c4.5-7.9,6.7-16.4,5.7-25.3c-1.7-15.4-12-25.6-26.7-28.2
				c-10.1-1.8-19.3,1.1-28,6c-0.7,0.4-1.3,1-2.2,0.8c5.7-5.9,13.2-9.9,21.2-11.5c10.4-2.3,20.3-0.8,29,5.9
				c6.8,5.2,10.5,12.2,11.6,20.6c1.8,13.3-3,24.4-11.3,34.4C275.6,171.5,275.3,171.8,275,172z"/>
			<path class="st2" d="M606.6,159.3c0.2-2.8,2.2-4.8,3.2-7.2c5-12.6,4.7-24.8-4.1-35.6c-5.1-6.3-12.2-9.3-20.2-10.3
				c-9.5-1.1-18,1.6-26,6.4c-0.5,0.3-1.1,0.4-1.6,0.4c5.4-5.5,12.3-9.3,19.9-11c10.4-2.5,20.3-1.3,29,5.4
				c6.8,5.2,10.3,12.2,11.2,20.7c1.2,11.7-3.1,21.5-10.2,30.3C607.4,158.8,607,159.1,606.6,159.3z"/>
			<path class="st0" d="M431.3,36.7l-27.6,13.9c-0.4,0.2-0.9,0.4-1.3,0.5c-1,0.3-2,1.9-3,0.2c-0.8-1.4-2.5-2.5-0.5-4.7
				c7.1-8.1,13.9-16.5,20.8-24.8c2.5,3.3,4.8,6.6,7.4,9.8C428.3,33.4,429.2,35.7,431.3,36.7z"/>
			<path class="st2" d="M510.2,98.9c-0.7,2.2-2.7,3.3-4.2,4.8c-0.7,0.7-1-0.2-1.1-0.9c-1-5.5-2-10.9-2.9-16.4
				c-1.1-6.2-2.3-12.5-3.4-18.8c-0.3-1.7-1.5-1.4-2.6-1.4c-7.2,0-14.4,0-21.6,0c-0.3-1.5,0.6-2.8,0.5-4.3c0-0.8,0.7-1.1,1.6-1.1
				c8.6,0,17.2,0,25.8,0c2.2,0,1.5,1.8,1.7,2.8c1,4.9,1.9,9.9,2.8,14.8C507.8,85.4,509,92.1,510.2,98.9z"/>
			<path class="st2" d="M185.4,212.3c-4.8-17.8-9.5-35.6-14.3-53.4c-0.2-0.7-0.5-1.3,0.1-1.8c1.7-1.2,3-2.9,5.2-3.3
				c4.8,18.4,9.6,36.9,14.4,55.3c0.3,1.1,0.4,1.5-0.9,1.8C188.5,211.3,187,211.9,185.4,212.3z"/>
			<path class="st2" d="M442.5,88.3c-2-3.9-5.5-6.5-9-8.8c-7.8-5.3-17.2-7.8-26.6-7.2c-8.8,0.4-17.4,2.9-25.1,7.3
				c-0.8,0.6-1.7,0.9-2.7,0.9c4.9-5.1,11-8.2,17.6-10.4c13.4-4.4,26.7-4.4,39.4,2.6c4,2.3,7.6,5.2,10.7,8.6c0.9,0.9,1,1.6,0,2.5
				C445.3,85.1,444,86.7,442.5,88.3z"/>
			<path class="st2" d="M309.6,93c-0.8,1.2-1.6,2.4-2.4,3.6c-0.7,1-1.4,1.9-2.2,2.9c-1.3-4.2-0.9-8.5-1.1-12.7
				c-0.3-7.3-1.2-14.6-1.1-22v-0.2c-0.1-3.6-0.4-3.8-3.9-2.8c-8.6,2.5-17.2,5.1-25.7,7.6c-0.6,0.1-1.3,0.2-1.9,0.3
				c-0.7-2.5,0.4-3.4,2.9-4.1c10.4-2.9,20.8-6.1,31.2-9.2c0.7-0.2,1.5-0.4,2.3-0.4C308.3,68.3,309,80.7,309.6,93z"/>
			<path class="st2" d="M357.8,85.8c-3.3-4.1-7.6-7.2-11.2-10.9c-4.1-4.2-8.6-8-12.9-12c-0.4-0.4-0.9-0.7-1.3-1l4.2-6.3
				c7.8,7.5,15.5,14.9,23.3,22.2c3,2.9,3.1,2.8,0.2,5.9C359.4,84.4,358.6,85.1,357.8,85.8z"/>
			<text transform="matrix(0.996 -8.963770e-02 8.963770e-02 0.996 190.6394 287.6111)" class="st3 st4 st5 st6">B</text>
			<text transform="matrix(0.996 -8.963770e-02 8.963770e-02 0.996 274.4429 286.9441)" class="st3 st4 st5 st6">a</text>
			<text transform="matrix(0.996 -8.963770e-02 8.963770e-02 0.996 346.6889 287.3379)" class="st3 st4 st5 st7">t</text>
			<text transform="matrix(0.996 -8.963770e-02 8.963770e-02 0.996 422.5719 287.1513)" class="st3 st4 st5 st7">t</text>
			<text transform="matrix(0.996 -8.963770e-02 8.963770e-02 0.996 498.45 285.2318)" class="st3 st4 st5 st8">l</text>
			<text transform="matrix(0.996 -8.963770e-02 8.963770e-02 0.996 534.9482 286.2915)" class="st3 st4 st5 st8">e</text>
			<text transform="matrix(0.996 -8.963770e-02 8.963770e-02 0.996 597.7053 284.7566)" class="st3 st4 st5 st8">!</text>
			<path class="st2" d="M625.6,191.4c0.2-4.8,1.4-9.4,2.2-14.1c2-11.6,4.1-23.3,6-34.9c0.6-3.6,2-6.2,5.5-7.4
				c-1.1,6.4-2.1,12.8-3.2,19.2c-1.4,7.8-2.8,15.6-4.2,23.3c-0.7,4.1-1.3,8.2-2.1,12.3C629.3,192.3,628.6,192.5,625.6,191.4z"/>
			<path class="st2" d="M309.1,186.4c0-10.6,0-21.2,0-31.8c-0.1-1.8-0.3-3.7-0.6-5.5c-0.5-4.4,2.3-6.3,5.3-8.3
				c0,14.5,0,29.1,0.1,43.6c0,1.2-0.6,1.5-1.6,1.6L309.1,186.4z"/>
			<path class="st2" d="M452.4,130.6c-3.1-1.4-5-4.3-7.5-6.3c-3.6-2.9-6.9-6.2-10.4-9.3c-0.4-0.3-0.8-0.4-1.3-0.6
				c1.3-1.3,2.7-2.6,3.8-4s2-1.4,3.3-0.2c5.7,5.2,11.5,10.4,17.3,15.7C455.8,127.5,454.5,129.5,452.4,130.6z"/>
			<path class="st2" d="M482.4,164.7c0.2-5.1,1.4-10,2.2-15c0.9-5.9,1.9-11.9,2.7-17.8c0.5-3.5,2.5-5.6,5.3-7.2
				c-0.1,3.9-1.1,7.8-1.6,11.6c-1,6.7-2.1,13.3-3.1,19.9c-0.4,2.5-0.6,4.9-1.1,7.4C486,166.9,484,164.8,482.4,164.7z"/>
			<path class="st2" d="M431.3,36.7c-2.1-1.1-2.9-3.3-4.3-5c-2.5-3.2-4.9-6.5-7.4-9.8l4.7-5.9c2.2,2.9,4.3,5.8,6.5,8.6
				c1.9,2.5,3.7,5,5.6,7.5c0.8,1,1.1,1.9-0.5,2.5S432.8,36,431.3,36.7z"/>
			<path class="st2" d="M508.6,156.4c0.8-3.7,2.6-7.1,3.8-10.7c1-2.7,2.1-5.4,3.2-8.1c0.9-2.3,2.6-4.1,4.8-5.1
				c-2.8,7.5-5.7,15-8.6,22.5c-0.5,1.4-1.1,2.8-1.7,4.4C509.4,158.6,508.9,157.5,508.6,156.4z"/>
			<path class="st2" d="M429.3,117.3c-0.2,2.2-2.2,2.8-3.5,3.7c-5.5,3.9-11.7,5.6-19,5.7l5-5.4c4.7,0.7,9.1-0.7,13.4-2.2
				C426.6,118.7,428,117.9,429.3,117.3z"/>
			<path class="st2" d="M199.1,133.5c0-0.7,0-1.4,1-1.4C200,132.7,199.6,133.2,199.1,133.5z"/>
			<path class="st0" d="M197.1,184.3l-0.2,0.3c0-0.1-0.1-0.1-0.1-0.1c0-0.1,0.1-0.2,0.1-0.3L197.1,184.3z"/>
			<path class="st9" d="M159.2,97.6c3.7-1.8,7.8-3,11.9-3.3c11.3-0.6,21.9,6,20.8,20.2c-0.7,9.5-6.4,15.7-13.4,21
				c-2.1,1.8-4.4,3.3-6.8,4.5c-4.4-13.5-8.6-27.1-12.6-40.8C159.1,98.7,159.1,98.2,159.2,97.6z M179.3,122.8
				c2.2-1.8,2.9-4.4,3.5-6.9c1.5-6.5-0.9-10.9-6.8-12.2c-1.9-0.4-3.9-0.1-5.9-0.1c0.3,1.1,0.6,2.1,0.9,3.1c1.2,6.5,3.8,12.5,5.5,19
				C177.6,125,178.5,124,179.3,122.8z"/>
			<path class="st2" d="M159.2,97.6c-0.1,0.6-0.1,1.1,0,1.7c4,13.6,8.1,27.2,12.6,40.8c-0.3,1.6-1.8,2-2.9,2.6s-1.2-0.6-1.4-1.3
				c-1.8-5.4-3.5-10.9-5.2-16.4c-2.2-7.3-4.4-14.7-6.5-22c-0.5-1.8,1.2-5.2,3-5.8C158.8,97.1,159,97.5,159.2,97.6z"/>
			<path class="st9" d="M392,91.1c7.7-8.4,18.9-9.7,28.1-3.4c0.2,0.1,0.4,0.2,0.6,0.4c3,2.5,2.9,2.4,0.3,5.3
				c-5.7,6.3-11.2,12.7-16.8,19.1c-2.5,2.8-5,5.7-7.5,8.6c-1.1,1.3-1.6-0.6-2.4-0.3c-0.3-0.4-0.6-0.7-1-1.1
				C385.4,112,384.8,99.5,392,91.1z M399.1,95.1c-4.7,2.7-6.2,10.8-2.7,15.7c4.3-5.2,9-9.9,13.1-15.3l3.4-2.7
				C407.3,90.8,402.8,91.3,399.1,95.1z"/>
			<path class="st2" d="M392,91.1c-7.2,8.4-6.6,20.9,1.4,28.6c0.3,0.3,0.6,0.7,1,1.1c-2.9,3.1-3.6,3.2-5.7,0.4
				c-7.3-9-6.5-22.1,1.8-30.2C390.8,90.5,391.7,88.9,392,91.1z"/>
			<path class="st9" d="M247.1,124.2c-2.7,4.3-1.6,9.3,2.7,12.7c4.1,3.2,9.7,3.5,14.1,0.7c4.1-2.3,5.7-5.8,5.3-10.4
				c2.7,3.2,3.2,6.9,2.8,10.9c-0.6,5.1-3.5,9-7.2,12.4c-4,2.6-8.8,3.8-13.6,3.5c-5.9-0.4-10.7-2.7-14.2-7.4
				c-4.8-6.5-4.7-13.4-0.7-20.3c4.9-5.9,11.1-8.7,18.7-7.8c0,0.1,0.1,0.3,0.1,0.4l0,0C251.7,119.2,248.7,121.2,247.1,124.2z"/>
			<path class="st2" d="M236.2,126.3c-3.9,6.9-4,13.8,0.7,20.3c3.4,4.7,8.3,7,14.2,7.4c4.8,0.3,9.6-0.9,13.6-3.5
				c-1.1,3.1-3.9,4.4-6.4,5.9c-9,5.3-19.4,3.5-26.4-4.3c-5.1-5.8-5-16.2,0.4-22.4C233.5,128.4,234,126.3,236.2,126.3z"/>
			<path class="st2" d="M269.2,127.2c0.4,4.6-1.2,8.1-5.3,10.4c-0.2-1.8,0.7-3.5,0-5.4C263.5,130.8,267.7,127.1,269.2,127.2z"/>
			<path class="st2" d="M247.1,124.2c1.6-3,4.5-5,7.9-5.4C253.5,122.2,251,124.2,247.1,124.2z"/>
			<path class="st2" d="M255,118.8c0-0.1,0-0.3-0.1-0.4c0.2,0,0.6-0.2,0.6,0.3C255.4,118.8,255.2,118.8,255,118.8z"/>
			<path class="st9" d="M577.5,115c-3.1,5.2-0.2,12.4,7.1,14.5c3.3,1.1,6.9,0.7,9.8-1.3c4.2-2.2,5.8-5.7,5.3-10.3
				c3.9,5.5,3.3,14.3-1.5,19.7c-1.3,1.5-2.9,2.8-4.4,4.1c-4.5,2-9,3.2-14.1,2.6c-8.7-1.2-15.9-9-16.1-17.7c-0.1-3.5,1.2-6.5,2.5-9.6
				c3.2-4.3,7.9-7.2,13.2-8.1c2.3-0.5,4.8-0.5,7.1,0.2C582.7,109.7,579.4,111.3,577.5,115z"/>
			<path class="st2" d="M566.2,117c-1.4,3.1-2.6,6.1-2.5,9.6c0.2,8.8,7.4,16.6,16.1,17.7c5.1,0.7,9.6-0.5,14.1-2.6
				c-1.1,3.1-4,4.4-6.6,5.7c-9.1,4.7-19.2,2.7-25.4-5.4c-4.4-5.8-5-12.2-0.3-19.7C562.9,120.4,563.9,118.1,566.2,117z"/>
			<path class="st2" d="M599.8,117.9c0.5,4.6-1.1,8.1-5.3,10.3c0.4-1.9-0.2-4.2,0.4-5.8C595.8,120.4,597.6,118.7,599.8,117.9z"/>
			<path class="st2" d="M577.5,115c1.9-3.7,5.2-5.3,9-6C584.9,113,581.7,114.7,577.5,115z"/>
			<path class="st0" d="M179.3,122.8c-0.7,1.2-1.7,2.2-2.9,2.9c-1.7-6.5-4.3-12.6-5.5-19c4.2,0,7.7,3,8.4,7.2
				c0.3,2.3,0.2,4.6-0.3,6.9C178.8,121.5,178.1,122.3,179.3,122.8z"/>
			<path class="st2" d="M179.3,122.8c-1.2-0.5-0.4-1.3-0.3-2c0.5-2.3,0.6-4.6,0.3-6.9c-0.6-4.1-4.2-7.2-8.4-7.2
				c-0.3-1-0.6-2-0.9-3.1c2,0,4.1-0.3,5.9,0.1c5.9,1.3,8.3,5.8,6.8,12.2C182.2,118.5,181.4,121,179.3,122.8z"/>
			<path class="st2" d="M409.4,95.5c-3.4-1.6-6.9-0.8-10.3-0.4c3.8-3.8,8.2-4.3,13.7-2.3L409.4,95.5z"/>
		</g>
	</g>
	<polygon class="st1" points="359,106.8 358,118.7 349.5,123.3 344.2,117 343.9,108.6 352.6,105.9 	"/>
	<polygon class="st1" points="415,88.2 409.1,100.6 395.1,114.5 391.8,100.2 399.9,90 408.6,87.4 	"/>
	<polygon class="st1" points="186.1,106.8 184.7,122.7 173.9,130.6 166.6,107.9 171,97.3 178.2,98.9 	"/>
</g>
</svg>
